<?xml version="1.0" encoding="UTF-8"?>
<svg width="676px" height="377px" viewBox="0 0 676 377" version="1.1" xmlns="http://www.w3.org/2000/svg" xmlns:xlink="http://www.w3.org/1999/xlink">
    <!-- Generator: Sketch 58 (84663) - https://sketch.com -->
    <title>conquering-image</title>
    <desc>Created with Sketch.</desc>
    <g id="Page-1" stroke="none" stroke-width="1" fill="none" fill-rule="evenodd">
        <g id="Desktop-HD-(Full-Page)" transform="translate(-764.000000, -154.000000)" fill-rule="nonzero">
            <g id="conquering-image" transform="translate(1105.000000, 342.500000) scale(-1, 1) translate(-1105.000000, -342.500000) translate(764.000000, 154.000000)">
                <path d="M7,362 L609,358 L519.525072,289.903747 L478.098538,261.546168 L414.236749,217.803175 L369.024123,239.880217 L365.085979,241.798635 L266.792042,273.848409 C266.679148,273.834036 266.577277,273.773382 266.510746,273.680928 C260.884827,267.971348 171.32627,177.425028 150.936114,165.731809 C129.869326,153.718854 80.7185561,93.6388505 70.2117713,85.6226007 C65.4373423,81.9380187 53.3644231,65.7532636 40.4400135,48.449431 C25.2804412,27.940621 9.2693784,5.8179031 3.5142148,1.50614869 C2.52846473,0.821576684 3.69039313,120.986194 7,362 Z" id="_Path_" fill="#111440"></path>
                <path d="M4,3 C4,3 63.7217852,96.9178848 67.2290136,102.999665 C70.736242,109.081444 130.465635,176.916096 132.154582,182.997876 C133.980471,189.079656 176.135683,210.99687 181.339467,210.99687 C186.664976,210.99687 267.475779,275 267.475779,275 L363.456676,250.992174 L371.460156,246.035524 L369.755993,241.063669 L415,219.017217 L313.145827,229.059756 L281.953557,207.940775 C281.953557,207.940775 267.057346,199.943235 251.598153,190.980212 C237.546415,182.823025 167.287729,146.978535 167.287729,146.978535 L111.088388,104.869812 L54.8662236,45.0631096 L4,3 Z" id="_Path_2" fill="#48358C"></path>
                <path d="M21,20 L27.9724732,33.5647827 L43.6529918,51.6511596 C43.6529918,51.6511596 53.2288235,66.7205944 54.5418217,69.2181641 C55.8548199,71.7157339 68.041556,99.3570337 69.7846742,101.869879 C71.5277925,104.382725 92,130 92,130 C92,130 72.8332448,102.366338 72.3804868,99.3570337 C71.9277288,96.3477295 65.8456797,79.2619081 64.0799235,75.2444105 C62.3141673,71.2269129 55.371878,56.1498403 54.9342119,54.6222747 C54.4965459,53.0947091 44.0453821,44.0744341 43.1775959,42.569782 C42.3098098,41.0651298 21,20 21,20 Z" id="_Path_3" fill="#54469B"></path>
                <path d="M53,46 C53,46 57.8416904,54.004093 58.2839235,55.5015349 C58.7261566,56.9989768 61.7989144,67.0021927 61.7989144,68.4996346 C61.7989144,69.9970765 70.1860946,85.9824587 70.1860946,85.9824587 L76.3468597,97.9847975 L82.5076247,106.97705 L98.7940036,127.500365 L112,150 L105.839235,131.498611 L95.271388,115.999708 C95.271388,115.999708 82.3093823,102.005847 80.9674334,100.500804 C79.6254846,98.9957609 76.7890928,89.2585879 76.7890928,87.5027043 C76.7890928,85.7468206 75.2641509,77.7579301 74.5855518,76.2604882 C73.9069527,74.7630463 66.0077539,64.0073089 65.7866374,63.2623885 C65.5655208,62.5174682 53,46 53,46 Z" id="_Path_4" fill="#54469B"></path>
                <path d="M83,82 C83.4345285,83.9368964 83.7460984,85.8971374 83.9330033,87.869988 C83.9330033,89.4208435 85.807123,98.0668629 85.807123,98.0668629 L90.4883657,105.208552 C90.4883657,105.208552 96.3460038,111.83846 96.808449,112.85427 C97.2708941,113.87008 96.808449,109.287302 96.3460038,108.015601 C95.83566,105.74882 95.5208972,103.445818 95.4048875,101.129802 C95.4048875,100.354375 96.1107247,96.2833791 96.1107247,96.2833791 L83,82 Z" id="_Path_5" fill="#54469B"></path>
                <path d="M151,144.457861 L147.498101,152.937072 C147.498101,152.937072 146.183939,159.922182 145.743353,162.917968 C145.302767,165.913754 145.743353,166.406731 145.302767,171.897741 C144.862181,177.388751 145.302767,188.355602 144.862181,186.861501 C144.421595,185.3674 141.823657,176.387627 141.823657,174.885942 L141.823657,156.933981 C141.823657,154.438757 140.950081,144.958422 140.509495,143.464322 C140.068909,141.970221 137,128 137,128 L142.704829,132.990448 L150.15681,139.967974 L151,144.457861 Z" id="_Path_6" fill="#54469B"></path>
                <path d="M127.412698,122.041461 C127.412698,122.041461 132,129.13307 132,130.649951 C132,132.166831 131.079365,138.750247 131.079365,138.750247 L131.079365,154.920039 L131.539683,158 C131.539683,158 125.579365,149.892004 125.579365,146.858243 C125.579365,143.824482 122.833333,135.716486 122.833333,134.191905 C122.833333,132.667325 121,119 121,119 L127.412698,122.041461 Z" id="_Path_7" fill="#54469B"></path>
                <path d="M310.295599,230 C310.295599,230 305.015954,234.050332 303.256072,236.414309 C301.496191,238.778286 296.483194,244.176162 285.664874,248.904116 C274.846554,253.63207 259,258.698835 259,258.698835 C259,258.698835 265.155777,259.376457 268.965044,258.698835 C272.774312,258.021213 279.516716,255.618734 283.325984,255.618734 C287.135251,255.618734 302.090436,252.246024 306.18159,252.246024 C310.272744,252.246024 328.168683,249.543236 330.804697,246.855849 C333.44071,244.168461 344,234.027231 344,234.027231 L337.257596,236.052397 L333.737833,233.349609 C333.737833,233.349609 329.631442,236.730019 326.995429,239.432807 C324.359416,242.135595 326.408802,242.127895 320.839652,244.491872 C318.001315,245.760081 315.059753,246.777741 312.047862,247.533471 C312.047862,247.533471 313.510621,243.82195 313.510621,242.466706 C313.510621,241.111462 315.560007,239.093996 316.443757,237.399941 C317.327507,235.705886 319.963521,231.663254 318.203639,232.009765 C316.443757,232.356277 315.85713,233.69612 313.213498,233.69612 C310.569866,233.69612 310.295599,230 310.295599,230 Z" id="_Path_8" fill="#54469B"></path>
                <path d="M271.980068,265.332489 C271.980068,265.332489 292.075943,262.663964 292.953955,262.002534 C293.831967,261.341105 313.337454,255.669539 314.215466,255.669539 C315.093478,255.669539 329.353602,253.33553 330.814432,252.331982 C332.275262,251.328434 334.598966,251.328434 339.261511,247.329448 C343.924057,243.330461 343.628863,242.995945 349.752239,237.331982 C352.99881,234.270309 356.399246,231.377525 359.940204,228.664977 L361.983853,230.329954 L361.401034,233.667511 L365.768387,233.667511 C365.768387,233.667511 370.135739,229.334009 371.01375,229.334009 C371.891762,229.334009 378,227 378,227 L370.718557,232.998479 L364.019932,237.331982 C364.019932,237.331982 358.774568,238.662443 357.904125,238.996959 C357.033682,239.331475 350.335057,244.318804 348.586603,245.66447 C346.549535,247.451994 344.604295,249.342424 342.758421,251.328434 C342.758421,251.328434 349.457046,252.331982 350.039864,251.328434 C350.622682,250.324886 358.486943,246.333502 359.65258,244.995438 C360.818216,243.657375 364.60275,240.996452 366.056011,240.000507 C367.509272,239.004562 376.546739,233.332995 376.546739,233.332995 L374.798284,238.65484 C374.798284,238.65484 369.265296,245.656868 368.387284,246.3259 C367.509272,246.994932 360.523023,250.324886 360.523023,250.324886 L342.463227,254.323872 L326.742273,257.326913 L301.401034,264.997973 L269.943989,272 L258,263.348201 L271.980068,265.332489 Z" id="_Path_9" fill="#54469B"></path>
                <path d="M407,221 C405.113524,221.801686 403.281443,222.742722 401.51701,223.816301 C400.069381,224.867399 396.319046,229.087838 394.301366,230.5 C392.283686,231.912162 379,240 379,240 L379.750067,235.915963 C380.484121,234.281231 381.300389,232.690219 382.195285,231.149916 C383.012858,229.954392 385.780605,226.576436 385.293062,226.183277 C384.613962,225.734287 383.907291,225.33487 383.177873,224.987753 L386.928208,223.005912 L392.636218,223.005912 L407,221 Z" id="_Path_10" fill="#54469B"></path>
                <path d="M301.340997,225.38444 C301.672529,226.485945 301.887547,227.618989 301.982543,228.765079 C301.982543,229.97035 302.196392,231.903193 301.127148,232.873289 C300.057904,233.843386 300.279127,235.533705 298.361862,236.9815 C296.444597,238.429295 297.299992,237.716422 294.741181,239.641916 C292.182369,241.56741 291.341723,241.574759 289.638306,242.78003 C288.722608,243.479892 287.624696,243.903292 286.474819,244 L289.874277,237.958946 C290.609889,236.790734 290.69068,235.32751 290.088126,234.08591 C289.033398,232.103689 288.247338,229.990711 287.750538,227.802331 C287.32284,225.869488 287.108991,222.488849 286.474819,220.79853 C285.881139,218.892908 285.388847,216.957369 285,215 L289.468702,217.410542 C289.468702,217.410542 293.509707,219.350735 293.937404,220.313482 C294.365102,221.276229 294.785425,222.003801 295.213123,223.216422 C295.64082,224.429042 298.406106,226.59706 298.406106,226.59706 L301.340997,225.38444 Z" id="_Path_11" fill="#54469B"></path>
                <path d="M225,187 C225,187 229.069731,195.30373 229.651121,196.934281 C230.232512,198.564831 232.558072,202.218472 234.007773,206.861012 C235.457473,211.503552 235.751943,211.480906 236.914724,214.802398 C238.077504,218.12389 238.658894,218.116341 240.403065,220.765986 C241.977105,222.983417 243.948316,224.890205 246.216966,226.389876 C247.666667,227.378774 248.829447,227.054174 251.155008,229.69627 C253.480569,232.338366 259,238 259,238 L255.511659,228.737567 L245.341106,216.765098 C245.312731,215.547884 245.216944,214.333176 245.054186,213.126554 C244.759716,210.809059 245.054186,206.174067 244.759716,205.185169 C244.465245,204.19627 241.565845,195.62833 241.565845,195.62833 L238.077504,193.975133 L225,187 Z" id="_Path_12" fill="#54469B"></path>
                <path d="M226.283405,180.443842 C226.283405,180.443842 232.400859,185.849121 235.603438,187.555645 C238.806016,189.262169 242.886843,188.574926 243.765091,191.617326 C244.643339,194.659726 244.931042,196.358529 245.801719,199.40865 C246.672396,202.458772 246.384694,199.06889 246.672396,202.45105 C246.960098,205.833211 251.631471,212.952736 251.631471,212.952736 C251.631471,212.952736 253.955801,213.624535 254.251074,209.902614 C254.593142,206.923842 255.178144,203.979347 256,201.099731 L254.83405,193.987927 L240.26724,186.544086 L219,173 L224.822181,180.111803 L226.283405,180.443842 Z" id="_Path_13" fill="#54469B"></path>
                <path d="M262.357333,202 C262.357333,202 261.787658,206.031064 261.499122,207.042662 C261.210586,208.054259 259.508961,213.763656 259.508961,216.453586 C259.508961,219.143517 259.227823,233.25224 259.227823,235.934507 C259.227823,238.616774 260.359773,244.364489 260.359773,244.364489 C260.359773,244.364489 257.5188,251.415019 256.379451,253.76775 C255.240102,256.120481 256.949125,254.442148 257.799938,254.104949 C258.65075,253.76775 263.777819,253.76775 264.63603,250.411085 C265.494241,247.054419 266.626191,243.352891 266.907329,241.981103 C267.188467,240.609315 268.335214,236.264043 270.325375,233.911312 C272.315536,231.55858 273.462283,229.543049 276.022119,224.170851 C278.581954,218.798654 282,212.744395 282,212.744395 L274.88277,208.713331 L270.895049,211.066062 C270.895049,211.066062 272.034398,214.093192 270.613911,216.108724 C269.193425,218.124255 268.616352,217.787056 268.046678,216.445923 C267.477003,215.104789 266.626191,211.74046 266.056517,209.724928 C265.486842,207.709397 262.357333,202 262.357333,202 Z" id="_Path_14" fill="#54469B"></path>
                <path d="M281.939473,225.068003 C281.092516,226.57252 280.382346,228.14666 279.817126,229.77233 C279.211864,231.790663 279.518425,233.141334 278.307902,237.178 C277.097378,241.214666 278.00134,241.214666 274.982891,245.251332 C271.964442,249.287998 276.790816,245.251332 271.956582,249.295673 C267.122347,253.340013 265,254 265,254 C265,254 268.32501,245.251332 268.32501,244.246003 C268.32501,243.240674 268.018449,239.196333 270.140796,237.178 C272.263143,235.159667 276.193415,231.123001 276.790816,228.429333 C277.388218,225.735664 281.334211,218 281.334211,218 C281.334211,218 282.238174,224.054999 281.939473,225.068003 Z" id="_Path_15" fill="#54469B"></path>
                <path d="M216.639262,173.655491 C216.639262,173.655491 223.434608,182.984641 223.726056,185.643601 C224.017505,188.30256 227.560902,193.309001 229.041152,198.634517 C230.521402,203.960033 232.285431,206.299918 234.05713,212.962511 C235.828828,219.625104 237.301409,222.952602 237.301409,225.953427 C237.301409,228.954253 237.301409,227.951446 238.482541,232.95029 C239.663673,237.949133 240.254239,238.944344 242.616504,243.27465 C244.978769,247.604955 247.041916,249.937243 247.92393,251.63138 C248.805944,253.325517 241.72682,248.630554 241.72682,248.630554 L239.364555,242.636499 C239.364555,242.636499 234.348578,236.308176 234.348578,235.305368 C234.348578,234.30256 234.939144,225.315277 234.348578,223.651528 C233.758012,221.987779 227.560902,213.327168 227.560902,213.327168 C225.655207,212.00343 224.048799,210.300987 222.844042,208.328324 C220.773226,205.000826 219.300645,205.327498 217.820395,199.971594 C216.340145,194.61569 212.512969,187.641619 210.442153,182.316103 C208.371336,176.990586 203.654476,167.661437 202.473344,166.992899 C201.292212,166.32436 194.213087,162.996862 194.213087,162.996862 L183,156 L216.639262,173.655491 Z" id="_Path_16" fill="#54469B"></path>
                <path d="M155.13248,142 C155.129059,143.661233 154.934132,145.31659 154.551525,146.933593 C153.97057,148.908532 153.676321,150.230164 154.551525,153.519226 C155.273035,156.317001 156.144456,159.074343 157.162049,161.779426 C158.029709,164.077264 158.904913,165.729304 159.772573,168.35755 C160.640233,170.985796 161.515437,171.984529 162.096392,174.943183 C162.517691,177.637389 163.197318,180.285236 164.125961,182.850448 C165.58212,187.130734 166.163075,187.130734 167.030735,190.419796 C167.898395,193.708857 167.905939,191.080612 167.905939,187.416086 L167.905939,177.226002 C167.905939,174.920655 168.192644,171.301185 168.192644,171.301185 L176.582536,173.93694 C177.683184,174.399655 178.600454,175.209693 179.19306,176.242287 C180.068265,177.886818 182.965493,181.836696 182.965493,183.811635 C182.965493,185.786574 182.671244,184.472451 183.252198,187.108206 C183.833153,189.743961 184.708358,188.752737 186.737927,193.693839 C188.767496,198.634941 192.253224,200.932778 192.834179,202.907717 C193.415134,204.882656 194.282794,197.974125 194.282794,196.982901 L194.282794,192.372207 L196.025658,189.736452 L199.798091,189.736452 C199.798091,189.736452 202.98957,188.091921 203.276275,189.736452 C203.56298,191.380983 204.438184,193.033023 205.019139,195.33837 C205.600094,197.643717 207.342958,198.95784 208.504867,201.593594 C209.666777,204.229349 208.504867,199.618656 209.666777,204.229349 C210.422582,207.135577 211.596639,209.917763 213.152505,212.48955 L211.696346,216.769836 C211.124161,217.891269 211.021089,219.192488 211.409641,220.389306 C211.990596,222.694653 216.630689,225 216.630689,225 L215.763029,220.719714 C215.763029,220.719714 216.630689,220.389306 216.924939,216.769836 C217.219189,213.150366 216.630689,207.878856 215.468779,205.573509 C214.30687,203.268162 214.30687,201.623632 211.696346,198.004162 C209.085822,194.384692 209.085822,192.071836 207.629663,188.782774 C206.173504,185.493712 205.894344,184.17208 204.438184,180.522573 C202.982025,176.873066 199.503841,170.31747 199.503841,170.31747 C199.503841,170.31747 196.893317,169.987062 195.437158,169.987062 C193.980999,169.987062 197.760977,172.622817 193.694294,173.606532 C189.627611,174.590247 189.054201,176.895594 187.598042,174.597756 C186.141882,172.299919 185.855177,169.341265 184.700813,168.66543 C183.546448,167.989596 182.663699,166.360083 181.501789,165.376368 C180.33988,164.392654 181.501789,164.054736 175.405537,160.119877 C169.309285,156.185018 171.346399,159.46657 169.309285,156.169999 C167.272171,152.873428 155.13248,142 155.13248,142 Z" id="_Path_17" fill="#54469B"></path>
                <path d="M152.623263,153 C152.623263,153 155.890214,165.002948 156.484908,167.002172 C157.079601,169.001396 159.164889,171.669563 159.164889,176.663823 C159.164889,181.658083 159.164889,183.330437 160.354276,187.997828 C161.543662,192.665219 164.21592,195.994725 164.509405,197.332609 C164.80289,198.670493 166,202 166,202 L160.354276,196.329196 C160.354276,196.329196 155.596729,194.998914 154.113858,193.995501 C152.630986,192.992088 147.278747,191.327335 147.278747,191.327335 C147.278747,191.327335 146.684054,185.664133 146.684054,183.330437 C146.684054,180.996742 146.977539,174.003258 146.684054,169.335867 C146.390569,164.668477 145.494667,162.669252 146.382845,159.666615 C147.271024,156.663978 152.623263,153 152.623263,153 Z" id="_Path_18" fill="#54469B"></path>
                <path d="M7.16982717,79.3322199 C7.16982717,79.3322199 20.1305766,81.4145912 23.6528509,92.6578703 C23.7900824,92.9782351 23.7900824,93.2985999 23.9273138,93.6189647 C26.3212405,101.162793 28.2958488,107.745527 29.264093,112.398445 C29.7467939,114.072992 30.0308345,115.798558 30.1103537,117.539537 C30.1103537,120.430448 26.0239057,126.372452 23.637603,129.255736 L23.637603,129.415918 C23.2312321,129.874648 22.8543593,130.35871 22.5092554,130.865187 C22.2447285,131.954855 21.9137367,133.027288 21.5181392,134.076463 C20.5346471,137.127556 18.8421257,141.940656 16.5930544,144.831567 C13.0707802,149.644667 10.1126797,178.393595 9.5485059,180.308156 C9.41127443,180.62852 9.69336133,181.90998 10.1126797,183.839796 C11.8052011,193.313441 18.4228073,218.835837 18.9869811,221.086019 C19.5511549,223.80912 27.1522533,255.281148 27.1522533,255.281148 L42.9262478,295.410654 C42.9262478,295.410654 75.8770473,315.47922 78.8351478,315.47922 C81.6483928,315.47922 101.081893,323.503596 116.291714,334.2587 C126.850913,341.489792 148.67834,353.686537 159.664481,359.628542 C162.759813,361.230366 165.00126,362.511825 166,363 C165.016508,362.19146 163.606073,361.070183 161.921176,359.628542 C156.851236,355.448544 149.806687,348.86581 145.018834,344.853622 C138.683314,339.559975 114.599192,322.222137 105.732515,317.393782 C97.003069,312.740864 66.4385721,300.063571 66.4385721,300.063571 L92.2152156,274.053 L108.690615,265.220085 L129.809013,267.310084 C129.809013,267.310084 104.039994,258.637351 102.210241,257.996621 C100.517719,257.233848 84.6064933,251.253705 82.9139719,250.612975 C81.084219,249.972245 69.9532224,243.870059 65.8820223,241.146958 C61.7955742,238.576412 46.448522,221.879303 44.7560006,218.507845 C42.9262478,215.136387 37.7114521,199.728365 39.4192215,198.439278 C41.2489743,196.997636 64.0598934,188.324904 64.0598934,188.324904 L63.7854305,188.004539 L50.6874495,175.64761 L44.7712486,167.615607 L54.7510257,164.930645 L57.7091262,155.617182 L64.7536747,155.617182 C64.7536747,155.617182 68.268325,163.641558 68.268325,156.898642 L68.268325,142.268649 C68.268325,142.268649 64.7536747,141.627919 63.4880956,138.897191 C62.359748,136.166462 58.2733,130.232085 58.2733,130.232085 L59.4016476,120.75844 C59.4016476,120.75844 57.7091262,109.522789 54.7510257,106.79206 C52.2351155,104.541879 46.7382329,97.8065904 44.6340171,94.755497 C44.2123201,94.407581 43.8736912,93.9697522 43.642901,93.4740378 C43.3759497,92.4785926 43.2350735,91.4535327 43.2235826,90.4229444 C42.5145534,83.680028 41.2489743,66.822737 40.1206267,49.4848989 C25.9019221,30.4155652 11.1495397,9.82068481 4.35658214,3.5735711 C4.26001185,3.5735711 5.19776019,28.826454 7.16982717,79.3322199 Z" id="_Path_19" fill="#48358C"></path>
                <path d="M357,292.624083 C357,292.624083 371.123945,305.643474 373.823323,308.70686 C376.369763,311.609418 389.644894,311.609418 394.018958,316.771224 C398.400669,321.764543 410.842281,322.72951 414.359885,328.695454 C416.906325,333.045462 430.319101,349.97067 437.667835,359 L449.138283,359 L456.785248,351.908261 L488.566035,347.879909 C488.566035,347.879909 470.068026,339.815545 466.535128,339.815545 C463.00223,339.815545 444.496575,332.922927 442.661303,329.85954 C440.826032,326.796154 427.696192,317.774483 426.702087,314.711097 C425.853274,311.647711 423.314481,305.681766 423.314481,305.681766 L441.820137,305.681766 L452.128246,308.584325 C450.010037,306.654391 432.773777,291.337461 431.221443,288.434903 C427.663253,282.925658 424.410911,277.224222 421.47921,271.356526 C416.248686,261.400521 414.413414,244.276194 414.413414,244.276194 L426.702087,253.297865 L439.136052,259.26381 L466.535128,270.383901 L501,291.498289 L478.678509,262.00554 L414.444002,218 L370.65748,245.24116 L375.605066,260.389604 L360.532898,276.503015 L357,292.624083 Z" id="_Path_20" fill="#48358C"></path>
                <path d="M162.015301,238.680226 C161.451088,242.518952 176.661947,256.277555 179.338143,261.400924 C179.488131,261.584558 179.585597,261.805163 179.620249,262.039445 C181.450127,266.676323 185.536854,269.397637 189.051744,274.042116 C192.566635,278.686595 200.183501,284.752542 201.868513,290.005136 C203.706015,295.280534 210.179208,309.365999 210.179208,311.920082 C210.179208,313.204725 208.913542,312.079712 208.204465,311.600822 C208.486571,312.079712 209.195649,313.045095 210.179208,314.641397 C215.394359,322.63811 230.002883,344.720288 230.002883,344.720288 L248.172045,358 L290,358 L280.560881,350.641808 C280.560881,350.641808 272.25781,339.277658 262.955932,335.279301 C253.524437,331.280945 248.31691,327.282589 246.487032,327.282589 C244.794395,327.282589 233.525398,326.005547 231.840386,324.720904 C230.002883,323.284232 217.186115,293.364972 217.186115,293.364972 L232.961186,297.363328 L245.358607,309.365999 L249.43771,300.084643 L238.313578,287.922342 C238.313578,287.922342 235.919488,276.725424 231.840386,276.725424 C227.761283,276.725424 212.405559,266.007396 211.254261,263.924602 C210.270702,262.16867 202.806325,246.327273 201.960007,244.25208 C203.370538,245.050231 213.785592,252.248793 215.340988,253.373806 C217.163241,254.658449 230.689088,265.376477 230.689088,265.376477 L242.377432,269.374833 L267.583998,274.019312 C267.470778,274.00496 267.368613,273.944397 267.301891,273.85208 C262.658577,270.013354 186.482291,210 181.259515,210 L178.438453,224.716384 C178.438453,224.716384 178.156347,225.195275 177.737,226.001027 C176.32647,228.23585 173.230926,232.880329 168.442746,235.274782 C162.015301,238.680226 162.602386,234.689471 162.015301,238.680226 Z" id="_Path_21" fill="#48358C"></path>
                <path d="M92,131 L107.605604,169.653729 L112.951683,189.649396 L123.65929,202.311038 L123.65929,215.641483 L116.520885,224.305511 L131.971979,240.265565 L145.646196,251.597203 C145.646196,251.597203 145.646196,260.930034 146.241063,264.927647 C146.83593,268.92526 151,266.257652 151,264.258845 C151,262.260038 149.810266,245.600783 149.810266,245.600783 L129.600236,230.294331 L137.325782,222.960307 L137.325782,202.311038 L133.161713,185.651782 L129.600236,176.334151 L92,131 Z" id="_Path_22" fill="#54469B"></path>
                <path d="M420.440623,229.342484 C420.440623,229.342484 426.471785,232.546693 426.696308,233.289589 C426.920831,234.032486 437.643756,246.901851 437.643756,246.901851 L440.996121,251.34422 L447.251806,257.512511 C447.251806,257.512511 454.630107,263.680801 453.956537,262.937905 C453.282967,262.195009 438.983154,256.026718 438.983154,256.026718 L433.401039,248.132507 C433.401039,248.132507 424.017512,244.433034 423.3362,244.185402 C422.654888,243.93777 417.080516,241.22132 417.080516,241.22132 L411.715182,242.459481 L407.696989,237.274215 L403.462014,228.141843 L401,224.194738 L415.299813,220 L420.440623,229.342484 Z" id="_Path_23" fill="#54469B"></path>
                <path d="M394.734522,238 C394.734522,238 396.94629,242.525225 396.94629,246.049091 C396.94629,249.572957 397.826406,254.59504 398.706521,260.878376 C399.586637,267.161712 399.150406,271.939188 400.696348,274.201801 C402.24229,276.464413 406,283 406,283 C406,283 399.11214,273.445048 398.492232,273.192798 C397.872325,272.940547 391.642638,264.646849 391.642638,264.646849 C391.642638,264.646849 389.874754,257.606761 389.208927,257.109903 C388.543101,256.613046 382.588928,251.575675 382.588928,251.575675 C382.588928,251.575675 379.711333,245.79684 381.70116,245.292339 C383.690986,244.787838 394.734522,238 394.734522,238 Z" id="_Path_24" fill="#54469B"></path>
                <path d="M6.5540562,78.7452817 C6.5540562,78.7452817 19.5084934,80.7839498 23.0290522,91.7912641 C23.1662169,92.1049054 23.1662169,92.4185466 23.3033815,92.7321879 C26.5419908,94.1435735 29.361486,95.5624268 30.9236387,96.1897093 C36.2578187,98.3926657 35.0004763,95.4056061 35.0004763,95.4056061 L44,93.8373999 C43.5785084,93.4967857 43.2400443,93.0681457 43.0093666,92.5828349 C42.7425453,91.6082813 42.6017377,90.6047345 42.5902524,89.5957754 L31.4722972,84.1294565 L23.85204,74.2273542 C23.85204,74.2273542 17.6643912,73.592604 15.1268455,72.6516803 C13.3437054,71.9198507 10.4861089,73.9510512 6.5540562,78.7452817 Z" id="_Path_25" fill="#54469B"></path>
                <path d="M24,129.467314 L24,129.62379 C29.6654193,131.665439 35.4655514,134.176518 35.7424609,134.645948 C36.29628,135.584809 38.9231785,142.797641 38.9231785,142.797641 C38.9231785,142.797641 50.8153203,148.28923 50.5384107,146.717011 C50.1193044,145.152244 46.3922518,135.897762 46.3922518,135.897762 L45.0077042,129.780267 C45.0077042,129.780267 49.8423949,131.039532 50.8153203,131.352486 C51.6460489,131.665439 58,130.413625 58,130.413625 C58,130.413625 46.6616773,124.139653 44.7307946,121.159144 C42.6577152,118.335112 34.9117323,113.320405 34.9117323,113.320405 L29.5232225,113 C29.997064,114.635808 30.2758914,116.321455 30.3539511,118.022158 C30.3539511,120.846191 26.342505,126.650732 24,129.467314 Z" id="_Path_26" fill="#54469B"></path>
                <path d="M10.0348546,180.695408 C9.89832999,181.012056 10.1789639,182.278651 10.5961225,184.186081 L20.5472498,194.974751 L20.5472498,186.093512 C20.5472498,184.977703 19.705348,177.800335 19.705348,177.800335 C19.705348,177.800335 24.6050646,182.406818 24.6050646,183.356764 C24.6050646,184.306709 31.3326941,196.527837 31.6133281,197.636107 C31.893962,198.586053 34.275558,197.636107 34.275558,195.253704 C34.275558,192.8713 33.4336562,187.005762 32.7586179,181.449333 C32.19735,175.742119 27.5706826,168.119935 27.5706826,168.119935 L30.2329125,165.903395 C30.2329125,165.903395 39.1980287,179.707766 40.0399305,180.341063 C41.0183569,180.97436 54.7542499,187.32241 54.7542499,187.32241 L64,188.272356 L50.9694842,176.058768 L45.0837565,168.119935 C45.0837565,168.119935 38.075493,160.188642 37.7948591,159.238696 C37.5142252,158.28875 29.5351201,147.650865 28.4125844,146.421967 C27.7147919,145.472021 24.0741356,138.965647 21.9655888,135 C20.9871624,138.015701 19.3033588,142.772969 17.0658721,145.630346 C13.5389863,150.410232 10.5961225,178.787977 10.0348546,180.695408 Z" id="_Path_27" fill="#54469B"></path>
                <path d="M3.98254135,52.6566555 C4.52682233,50.5118009 4.94691417,48.3372331 5.24071615,46.1438261 C5.51947345,42.8081707 6.07698803,42.1742453 6.07698803,42.1742453 L9.25632797,37.1028416 L13.2945417,42.4987547 C13.2945417,42.4987547 15.6602117,50.4379164 16.7752409,52.6642022 C17.8902701,55.0489694 19.6984255,52.0302768 18.719008,46.1513728 C17.8902701,40.1139875 14.9520175,32.1748258 13.573299,25.9789592 C12.1795125,19.6246111 7.44817255,10.4175986 6.89065797,8.66675682 C6.26039817,7.22659698 5.50404537,5.84517969 4.6304637,4.53869462 C4.48731806,4.53869462 4.48731806,4.38021326 4.48731806,4.38021326 C4.22991144,4.19400299 4.06165253,20.2861504 3.98254135,52.6566555 Z" id="_Path_28" fill="#54469B"></path>
                <path d="M161.015221,239.486852 C160.453961,243.280992 175.585213,256.87979 178.247403,261.943651 L190.595112,267 L182.752648,260.042825 L176.184395,254.190083 L173.522205,245.49737 L180.105627,252.138993 L188.372827,254.986476 L200,258.465064 C199.438741,258.149512 197.899069,257.195342 194.812142,254.190083 C190.610281,250.238167 191.315647,251.981217 191.315647,251.981217 C191.315647,251.981217 185.56653,248.029301 185.2859,247.232908 C185.149378,246.444027 181.645298,241.387678 181.645298,241.387678 L181.364669,240.275733 L185.56653,238.382419 L180.530364,231.425244 L176.73807,227 C175.334922,229.208866 172.255579,233.799399 167.492458,236.166041 C161.015221,239.486852 161.599234,235.542449 161.015221,239.486852 Z" id="_Path_29" fill="#54469B"></path>
                <path d="M186,274 L198.102454,284.450392 C198.102454,284.450392 201.404509,288.930213 202.502653,290.178812 C203.600796,291.42741 208.008621,292.910594 208.008621,292.910594 L215.047414,292.910594 L212.187666,295.899664 L211.745358,299.138453 L218.128316,305.858184 L211.966512,305.608464 L216.587865,311.079596 C216.587865,311.079596 220.99569,316.558296 221.430371,317.549608 C221.865053,318.540919 223.191976,321.779709 224.076592,323.278027 C224.961207,324.776345 232,328 232,328 L222.970822,326.486547 C222.970822,326.486547 217.251326,323.459641 217.030172,322.755886 C216.809019,322.05213 207.787467,315.536715 207.787467,315.536715 L186,274 Z" id="_Path_30" fill="#54469B"></path>
                <path d="M9.25554295,205 C9.25554295,205 6.9051253,219.155181 6.31752088,222.521071 C4.8973207,229.345986 8.09808141,239.354629 6,246 C3.64958235,253.415716 19.9196659,256.260535 7,263 C-5.91966588,269.739465 6,309 6,309 C6,309 5.41239559,287.021071 6,285 C6.58760441,282.978929 6,272 6,272 L17.4820047,271.718394 L21,260.260535 L15.7191915,256.218394 L6.9051253,254.873575 L9.84314737,239.373575 L9.25554295,205 Z" id="_Path_35" fill="#54469B"></path>
                <path d="M112,188.666994 L107.990186,197.99436 C107.990186,197.99436 105.757361,206.500736 101.747546,207.496567 C97.7377323,208.492398 93.7201921,208.5 91.9354771,211.000981 C90.1507622,213.501962 75.8807684,224 75.8807684,224 L85.6928378,209.495831 L90.1507622,200.997057 C90.1507622,200.997057 90.5988724,188.499755 90.5988724,186.994605 C90.5988724,185.489456 90.1507622,180.495096 90.1507622,180.495096 L78.5617039,184.501226 L75,178.495831 C75,178.495831 82.1311338,174.999019 83.4986427,171.00049 C84.8661516,167.001962 85.2833577,158.997303 85.2833577,158.997303 L81.2735435,138.001226 L80.8254333,131 L90.6375026,139.004659 L94.6473168,150.498529 L102.234287,174.003188 L112,188.666994 Z" id="_Path_40" fill="#48358C"></path>
                <path d="M120.366378,204 C120.366378,204 120.366378,205.563858 118.645546,209.145091 C116.924714,212.726325 106.981295,219.427454 106.120879,220.975673 C105.260463,222.523892 100.07552,225.088619 97.0528408,230.741964 C95.3209694,234.021761 93.2942092,237.121763 91,240 L101.833762,237.943527 C101.833762,237.943527 108.31307,232.282363 110.475333,231.774109 C112.637596,231.265856 116.086743,224.916594 116.086743,224.916594 L123,216.002606 L120.366378,204 Z" id="_Path_41" fill="#48358C"></path>
                <path d="M124.755144,246 C124.755144,246 138.670462,258.484718 137.775962,261.484392 C136.881461,264.484066 137.775962,266.974935 135.528043,270.47582 C133.280124,273.976705 126.97195,278.464824 124.304004,280.462076 C121.636059,282.459327 113.079966,285.960212 110.388686,289.954714 C107.697406,293.949217 119.815945,290.949543 121.161585,290.448332 C122.507225,289.94712 136.430322,284.456578 136.430322,284.456578 L147.20322,284.456578 L149,266.990123 C149,266.990123 143.1663,251.04249 141.812882,251.04249 C140.459464,251.04249 124.755144,246 124.755144,246 Z" id="_Path_42" fill="#54469B"></path>
                <path d="M159.253893,241 C158.381102,246.514736 157.07944,259.557888 156.643045,261.068148 C156.206649,262.578408 155.341382,268.588936 153.633421,272.105248 C152.586334,274.196944 151.705727,276.370086 151,278.603941 L158.825022,286.651032 C159.772911,284.735194 160.502432,282.716125 160.999475,280.632876 C161.428346,278.123404 164.468066,270.099196 164.468066,270.099196 L169.245844,279.122616 L169.245844,286.651032 C169.245844,286.651032 167.507787,294.17182 164.039195,299.694184 C160.570604,305.216548 151.44392,313.240756 151.44392,313.240756 C151.44392,313.240756 155.348906,315.246808 161.428346,312.737336 C167.507787,310.227864 174.460017,307.718392 174.460017,307.718392 L183.579178,306.192877 L188.793351,307.192089 L194,310.204981 L190.095013,297.161829 C190.095013,297.161829 180.103062,283.615257 180.103062,282.112625 C180.103062,280.609993 177.499738,270.572105 177.499738,270.572105 L168.809449,261.06052 L159.253893,241 Z" id="_Path_43" fill="#54469B"></path>
                <path d="M371.090031,246 C370.977749,246.325488 370.816449,246.631138 370.611935,246.905953 C368.335288,250.258751 359.2287,260.255202 358.469817,260.557187 C357.710935,260.859171 353.218351,263.290531 350.008279,263.290531 C346.798206,263.290531 330.444291,275.849976 330.444291,275.849976 C328.308053,277.041934 326.341967,278.526952 324.600897,280.263591 C321.975164,282.981449 310,288.781094 310,288.781094 L314.963091,288.781094 C314.963091,288.781094 324.896861,290.484594 327.522594,288.781094 C330.148327,287.077593 334.823042,284.708179 334.823042,284.708179 L345.045188,279.28795 L342.411866,285.397322 C340.370473,287.77448 341.250776,293.914825 341.250776,293.914825 C342.180639,293.27835 343.15457,292.711607 344.164884,292.219068 C345.629527,291.537667 351.176958,291.537667 351.176958,291.537667 L357.635047,294 L361.141083,277.700597 L376,261.401194 L371.090031,246 Z" id="_Path_44" fill="#54469B"></path>
                <path d="M370.342577,309 L370.635237,314.418817 C370.635237,314.418817 361.390212,320.867209 359.078956,325.256451 C356.7677,329.645693 355.619576,333.771735 352.437847,337.472013 C349.256117,341.172291 338,348 338,348 L356.760196,340.870385 L362.823491,338.153235 L372.061011,337.812624 L373.794454,331.02362 L384.480261,329.328305 L387.654486,333.400159 L385.34323,336.45792 L371.198042,343.246923 L385.635889,343.587535 C385.635889,343.587535 390.828711,340.529774 391.699184,340.529774 L407,340.529774 L403.247961,331.02362 C403.247961,331.02362 396.314192,330.009528 394.295595,326.278285 C392.276998,322.547042 390.828711,316.090909 390.828711,316.090909 L375.235237,312.019055 L370.342577,309 Z" id="_Path_45" fill="#48358C"></path>
                <path d="M336.415964,301.836018 C336.415964,301.836018 334.084711,306.570425 334.084711,307.580535 C334.084711,308.590644 327.652886,314.682145 327.652886,314.682145 C327.652886,314.682145 325.025481,316.710075 324.144617,319.077279 C323.263753,321.444483 317.135673,327.188999 316.254809,327.559116 C315.373945,327.929232 313.331252,328.576936 313.331252,328.576936 L311,335 L325.025481,332.97207 C325.025481,332.97207 329.40702,325.191912 330.28029,324.490233 C331.153561,323.788554 338.170098,317.388622 338.170098,317.388622 L348.694904,312.993489 C348.694904,312.993489 352.491731,310.626285 353.076443,309.269191 C353.661154,307.912097 356,301.157471 356,301.157471 L340.220385,308.259082 L338.46625,312.654215 L332.619136,317.727896 L338.170098,304.542495 L345.186635,299.808088 L336.127405,296.423064 L336.127405,290 L329.110867,293.716587 L336.415964,301.836018 Z" id="_Path_46" fill="#48358C"></path>
                <path d="M318.098263,296.301183 L315.183761,298.949807 C315.183761,298.949807 302.950423,305.235572 302.072287,305.567593 C301.194152,305.899614 288.968384,309.204734 288.968384,309.204734 C288.968384,309.204734 283.13938,309.536755 282.844144,310.532819 C282.548909,311.528882 277,318.471143 277,318.471143 L282.299095,319.165369 L293.654297,319.49739 L301.814903,312.215562 L307.636337,309.566939 L305.312305,317.867468 L296.250853,326.711305 C296.250853,326.711305 292.170551,329.359929 291.292415,329.69195 C290.414279,330.023971 292.753451,328.363865 286.053882,332.333027 C279.354312,336.30219 277.605611,336.634211 277.605611,336.634211 L280.520113,339.946877 C280.520113,339.946877 288.385483,340.278898 290.126614,339.282834 C291.867745,338.286771 300.906487,332.665048 302.072287,330.680467 C303.238088,328.695886 306.735491,324.726724 307.901291,322.379938 C309.067092,320.033152 312.85216,315.762152 312.85216,315.762152 C312.85216,315.762152 316.349562,312.457032 318.098263,311.460969 C319.846965,310.464905 328,305.582685 328,305.582685 L326.546534,296.980318 L325.085498,292 L318.098263,296.301183 Z" id="_Path_47" fill="#48358C"></path>
                <path d="M336,334 L331.868872,339.801272 C331.868872,339.801272 326.847017,344.310108 324.773774,345.272092 C322.700532,346.234075 313.547549,348.209444 311.481985,350.104037 C309.416421,351.99863 307.043709,352.681564 302.912581,354.612874 C298.781453,356.544183 297,356.867292 297,356.867292 L308.84052,356.867292 C311.596623,357.044236 314.362031,357.044236 317.118133,356.867292 C320.366214,356.544183 324.205552,356.544183 324.205552,356.544183 C324.205552,356.544183 328.636149,354.289765 329.526875,351.06602 C330.417602,347.842275 336,334 336,334 Z" id="_Path_48" fill="#48358C"></path>
                <path d="M650.362714,362.8906 C645.094908,362.8906 544.90763,322.562702 544.90763,322.562702 L474.606778,344.74228 L400.766144,356.843715 L360.344105,348.773537 C360.344105,348.773537 332.223765,346.757908 312.012746,349.785183 C291.801727,352.812458 233.361051,327.099782 233.361051,327.099782 L167.064341,308.453302 L117.849939,318.531445 L68.6050866,328.617251 C68.6050866,328.617251 35.2093274,330.63288 22.9304672,328.617251 C14.7445605,327.273499 9.43440471,341.401082 7,371 L682,377 L650.362714,362.8906 Z" id="_Path_49" fill="#0C1030"></path>
                <path d="M544,323 L554.603144,333.999155 C554.603144,333.999155 548.421802,342.999155 547.534381,346.001689 C546.646961,349.004223 552.835953,357.000845 552.835953,357.000845 L566.086059,355.997466 L596.99277,357.000845 C596.99277,357.000845 645.563739,368 642.893827,368 C640.223916,368 568.687118,337.001689 568.687118,337.001689 L544,323 Z" id="_Path_50" fill="#48358C"></path>
                <path d="M359.460122,349 L333,361.001652 L362.990176,361.001652 C362.990176,361.001652 388.563964,356.00033 377.981444,361.997356 C367.398923,367.994382 393.897249,372 393.897249,372 L438,368.997687 L409.774851,361.001652 C409.774851,361.001652 397.129312,362.331791 395.073934,361.336087 C393.018556,360.340383 359.460122,349 359.460122,349 Z" id="_Path_51" fill="#54469B"></path>
                <path d="M166.738306,309 C166.738306,309 174.630847,324.258487 174.630847,327.313278 C174.630847,330.368069 145.058505,344.884126 145.058505,344.884126 L136.041713,354.775462 L115,366.986892 L145.688996,368 L206.201013,365.966051 L276.352716,365.966051 C273.724401,365.966051 216.721869,353.754621 216.721869,353.754621 L202.691529,340.530083 L229.27853,346.353519 L211.495624,329.339494 L255.341389,347.645039 L286,356.809411 C286,356.809411 269.121052,346.129244 268.460175,346.129244 C267.799298,346.129244 249.826485,338.496133 249.165608,338.496133 C248.504731,338.496133 228.997468,329.092017 228.336591,329.092017 C227.675714,329.092017 200.716494,323.748067 200.716494,323.748067 L166.738306,309 Z" id="_Path_52" fill="#54469B"></path>
                <path d="M10.0109115,347.103003 C24.7533861,346.720898 39,346.338854 39,346.338854 L12.6896512,339.299363 C12.6896512,339.299363 -4.73622817,347.485229 10.0109115,347.103003 Z" id="_Path_53" fill="#48358C"></path>
                <path d="M343.940322,44.3727845 C342.644991,21.392952 324.962195,2.73077274 302.153558,0.271611558 C279.344921,-2.18754962 258.114011,12.2790664 251.982137,34.4581193 C251.414324,34.437673 250.847003,34.414786 250.274237,34.414786 C229.476508,34.4186157 211.167462,48.1700913 205.304018,68.1908141 C191.504283,62.1071348 175.350899,66.1385684 166,78 L312.201181,78 C330.162924,78 344.705954,63.0730596 343.973493,45.0663167 C343.964099,44.8355023 343.953042,44.6043249 343.940322,44.3727845 Z" id="Path" fill-opacity="0.496530813" fill="#FFFFFF"></path>
                <path d="M401.059672,99.3727689 C402.355,76.3929462 420.037794,57.7307734 442.846429,55.2716118 C465.655064,52.8124501 486.885973,67.279059 493.017847,89.4581021 C493.58566,89.4376621 494.152981,89.4147689 494.725753,89.4147689 C515.523477,89.4186047 533.832519,103.170071 539.695967,123.190781 C553.495713,117.107092 569.649115,121.138542 579,133 L432.798815,133 C414.837075,133 400.294046,118.073067 401.026507,100.066338 C401.035892,99.8355199 401.046947,99.6043301 401.059672,99.3727689 Z" id="Path" fill-opacity="0.496530813" fill="#FFFFFF"></path>
                <g id="Asset-3" transform="translate(590.500000, 314.000000) scale(-1, 1) translate(-590.500000, -314.000000) translate(546.000000, 251.000000)">
                    <path d="M11.9288319,111.405955 C11.391955,112.800388 7.60522598,113.604385 4.55233452,112.442358 C1.49944305,111.28033 0,107.828794 0,107.828794 C0,107.828794 3.29432721,106.68561 6.53782585,107.084468 C9.86392092,107.495889 12.4688855,110.008381 11.9288319,111.405955 Z" id="Path" fill="#A9C968"></path>
                    <path d="M20.4424746,103.924123 C19.0835616,103.390933 18.4190565,99.8718787 19.6450684,97.0773356 C20.8710804,94.2827925 24.3364745,93 24.3364745,93 C24.3364745,93 25.3598124,96.0705474 24.8647561,99.059548 C24.3597322,102.111277 21.8080326,104.457313 20.4424746,103.924123 Z" id="Path" fill="#A9C968"></path>
                    <path d="M22.076632,108.589335 C21.5405326,106.960165 23.8883897,104.231635 26.8950678,102.628955 C30.2343859,100.840841 34,103.433607 34,103.433607 C34,103.433607 32.1720947,106.764797 29.3268923,108.678741 C26.4009521,110.648977 22.6095019,110.244996 22.076632,108.589335 Z" id="Path" fill="#A9C968"></path>
                    <path d="M12.4946429,105.915628 C13.2164988,105.468146 13.2073998,103.099309 12.1913421,101.35945 C11.1752845,99.6195902 9.04914589,99 9.04914589,99 C8.92046397,100.351205 9.04506169,101.715334 9.41613985,103.017949 C10.0470055,104.99876 11.772787,106.35998 12.4946429,105.915628 Z" id="Path" fill="#A9C968"></path>
                    <path d="M15.2601072,102 C15.2601072,102 14.2614753,105.696429 16.1776813,107.383929 C17.3272684,108.391786 18.2563798,109.622446 18.9077074,111 C18.9077074,111 19.4491733,106.606071 17.9090755,105.214286 C16.8940032,104.256862 16.0040684,103.177006 15.2601072,102 L15.2601072,102 Z" id="Path" fill="#A9C968"></path>
                    <path d="M26.9999254,101.071654 C26.9999254,101.071654 21.9864317,100.316086 22,103.71199 C23.0199602,104.096003 24.1955289,104.096003 25.2154615,103.71199 C27.0407131,103.075431 26.9999254,101.071654 26.9999254,101.071654 Z" id="Path" fill="#A9C968"></path>
                    <path d="M12.1120623,111.469755 C14.0816703,113.171661 15.7727061,115.187558 17.1206226,117.4405 C18.7797665,120.201889 18.7610895,124 18.7610895,124 L20.351751,124 C20.351751,124 20.0653696,118.454822 20.585214,114.855097 C20.9105,112.676318 21.8264294,110.635839 23.2280156,108.967545 L23.5392996,107.45726 C23.5392996,107.45726 21.9050584,109.175529 21.3603113,110.122657 C21.3603113,110.122657 22.5805447,105.911778 24,104.417492 L23.4770428,104.097516 C23.4770428,104.097516 21.9206226,106.234954 21.3354086,108.135609 C21.3354086,108.135609 21.1019455,105.556605 21.5688716,103.515161 L20.9743191,103 C20.9743191,103 20.488716,106.650922 20.566537,108.529179 C20.6243181,109.603453 20.4989551,110.679841 20.1961089,111.709736 C20.1961089,111.709736 19.5984436,109.549901 18.7610895,109.229925 L19.1066148,110.209051 C19.6511341,111.434673 19.8537371,112.791687 19.6918288,114.128752 C19.3992218,116.288588 19.1844358,118.22764 19.1844358,118.22764 C19.1844358,118.22764 17.7649805,115.667835 16.2863813,114.128752 C16.2863813,114.128752 15.8007782,108.490782 13.2513619,105.470212 L12.9587549,105.88938 C12.9587549,105.88938 14.9291829,108.449185 15.0599222,112.896846 C15.0599222,112.896846 13.5564202,111.242572 12,110.628219 L12.1120623,111.469755 Z" id="Path" fill="#A9C968"></path>
                    <path d="M71.2970052,117 C71.2970052,117 72.379891,122.251535 71.8576709,123.860876 C71.3354509,125.470217 58.0813139,126.232537 56.3608712,125.937773 C54.6404285,125.64301 53.4774476,123.816831 54.2367492,123.057899 C54.9960507,122.298968 57.6808384,122.84445 60.3656261,121.235109 C63.0504138,119.625767 64.1044653,118.483982 65.0784217,117.210061 L71.2970052,117 Z" id="Path" fill="#DC5A6A"></path>
                    <path d="M68.5066118,84 C68.5066118,84 68.7273858,85.2738646 70.2629188,90.2514907 C71.7984517,95.2291168 72.9550442,112.598261 70.8692236,117.852953 C70.8692236,117.852953 68.4505945,123.053505 64.4437102,117.266975 C64.4437102,117.266975 60.5422702,91.076318 57,85.5795921 L68.5066118,84 Z" id="Path" fill="#FFDDBA"></path>
                    <path d="M60.5585118,20 C60.5585118,20 70.0341239,33.6107928 76.3030013,55.1008434 C82.5718786,76.590894 83.5647454,80.3734506 79.7860679,82.0820122 C76.0073904,83.7905738 72.1258918,84.967013 71.5378833,84.540674 C70.9498748,84.114335 71.2808304,81.9217344 71.2808304,81.9217344 C71.2808304,81.9217344 68.7103015,86.5152968 63.9869547,87.4769637 C59.2636078,88.4386307 48.7790631,88.0796084 44.987533,86.355019 C44.987533,86.355019 47.7733436,79.7836282 48.6826682,75.6708993 C49.5919928,71.5581703 51.3078209,44.2019514 51.3078209,44.2019514 L48.2006941,46.4073742 L41,38.4447719 C41,38.4447719 46.3820449,27.6548689 50.5045306,27.0650465 C54.6270163,26.4752241 60.5585118,20 60.5585118,20 Z" id="Path" fill="#DE5C6F"></path>
                    <path d="M38,10.0186987 C38,10.0186987 39.0579148,15.8044772 40.0661915,16.869521 C41.0744681,17.9345649 41.8500655,17.0550242 45.0051957,20.4932287 C48.1603259,23.9314332 51.0300363,8.76815177 47.0744895,8.2340307 C43.1189428,7.69990963 40.5315499,7.99415596 38,10.0186987 Z" id="Path" fill="#FFDDBA"></path>
                    <path d="M30.3869305,21.8975159 C30.3869305,21.8975159 29.0382703,20.8019956 30.1594843,19.5550359 C31.2806983,18.3080761 31.9406128,17.2576655 31.9406128,16.5939092 C31.9406128,16.5939092 28.7563651,16.9547864 28.0355847,12.4857083 C27.3148042,8.01663029 37.767722,3.9470949 39.087551,3.54433011 C40.40738,3.14156533 42.4127513,2.49714167 43.2937051,1.61105914 C44.174659,0.724976614 45.1741412,0 47.0161355,0 C48.8581299,0 49.6205554,1.53050618 50.3413359,1.44995323 C51.0621163,1.36940027 55.1849802,4.54963102 62.2326109,4.54963102 C69.2802416,4.54963102 72.1633633,3.09967779 75.9690839,5.35516059 C79.7748045,7.61064338 78.342854,14.164432 80.7326415,16.0590375 C83.122429,17.9536431 91.6564691,21.3207567 88.1775023,27.4492257 C84.6985356,33.5776946 74.7453589,28.7058518 73.0347067,26.5502547 C71.3240545,24.3946575 71.0421493,21.6139694 67.518334,21.4141981 C63.9945186,21.2144268 59.9517414,22.419499 58.0681019,24.7587569 C56.1844624,27.0980148 54.4641998,31 51.8213383,31 C49.1784768,31 46.4971736,24.3946575 45.2542279,21.575304 C44.0112821,18.7559505 46.8976072,14.3255379 47.5767425,13.5586737 C48.2558779,12.7918096 49.4187369,10.0562312 46.4971736,9.89512525 C43.5756104,9.73401933 41.2498922,9.47947199 38.6871174,11.1839726 C36.1243426,12.8884731 34.6571541,17.8279805 33.9620014,19.6420331 C33.2668487,21.4560856 31.8925607,23.0671448 30.3869305,21.8975159 Z" id="Path" fill="#012B3D"></path>
                    <path d="M51,4 C52.2347388,4.74721875 53.5472193,5.35397642 54.9135511,5.80922848 C56.2631217,6.29158708 57.6626929,6.61619298 59.0850336,6.77673034 C59.7927436,6.84979837 60.5040572,6.88102639 61.2153556,6.87025552 C61.5720014,6.87025552 61.9254629,6.83155545 62.2821087,6.81220541 C62.6387546,6.79285537 62.9922161,6.74770528 63.3488619,6.7025552 L67.6254275,6.1833292 C69.0520109,6.04787894 70.5231749,5.89952865 71.9624956,6.24460432 C72.1411965,6.28571311 72.31764,6.33630803 72.4910956,6.39617961 C72.6662342,6.44777971 72.8350041,6.51872984 73.003774,6.58645497 C73.1740114,6.65206456 73.3408707,6.72633418 73.5037151,6.8089804 C73.6770686,6.8835459 73.8415699,6.97766535 73.9941031,7.08955594 C74.5680131,7.57551922 74.9941956,8.21624823 75.2232575,8.9374845 C75.7263828,10.3242372 75.9397335,11.7722649 76.2422455,13.1880427 C76.3742513,13.9008269 76.5551351,14.6034296 76.783583,15.2907467 C76.8988461,15.629612 77.0516049,15.9541779 77.2389433,16.2582486 C77.423381,16.5693234 77.6859981,16.8252788 78,17 C77.6738328,16.8387429 77.3966222,16.5914147 77.1975469,16.2840486 C76.9972356,15.9816032 76.8316412,15.6570046 76.7039745,15.3165468 C76.4505802,14.6333414 76.2452089,13.9328428 76.0893973,13.2202927 C75.7709636,11.804515 75.5130322,10.3629372 74.9939851,9.02778467 C74.7679729,8.36113313 74.367331,7.76921596 73.8348862,7.31530638 C73.6936642,7.21685409 73.5432867,7.13260412 73.3858946,7.06375589 C73.2266777,6.98958075 73.0674608,6.9121806 72.9018752,6.85090548 C72.7386923,6.78220532 72.5717744,6.7229841 72.4019342,6.67353014 C72.2359846,6.61645617 72.0669366,6.56907813 71.8956245,6.53162987 C70.5199906,6.20912925 69.0774856,6.35747953 67.6604552,6.50260481 L63.3807053,6.99280576 C63.0240594,7.03473084 62.6674136,7.07665592 62.3043991,7.09600595 C61.9413846,7.11535599 61.5815544,7.16373108 61.2217243,7.14760605 C60.8618941,7.13148102 60.4956952,7.14760605 60.1358651,7.12503101 C59.7760349,7.10245597 59.4130204,7.07665592 59.0563746,7.02183081 C56.1802977,6.64263586 53.4261392,5.60959045 51,4 L51,4 Z" id="Path" fill="#93AADB"></path>
                    <path d="M35,13.4375855 C35.376727,12.8017606 35.8261013,12.2115992 36.3391301,11.6789112 C36.5820272,11.3985428 36.8664725,11.1595925 37.1317417,10.9015262 C37.3970109,10.6434598 37.6910442,10.4140675 38.0010577,10.2069773 C39.2122597,9.3368622 40.5807474,8.70831266 42.031232,8.35590884 C43.4836195,7.99932216 44.9890578,7.90971064 46.4736922,8.0914705 L47.0297988,8.14563257 C47.2151676,8.1679346 47.4005364,8.20616665 47.5827093,8.23802669 C47.7678657,8.26783602 47.9513495,8.30718275 48.1324238,8.35590884 C48.3165799,8.3967574 48.4980322,8.44889453 48.6757462,8.51202305 C49.4312972,8.71403597 50.1028489,9.15029317 50.593355,9.75775068 C50.8079351,10.0903279 50.9434836,10.4673674 50.9896608,10.8601081 C51.0180551,11.2436842 50.987882,11.6293347 50.9001724,12.0038836 C50.7154934,12.7311567 50.4395232,13.4323021 50.0787966,14.0907164 C49.3980455,15.4097221 48.5542977,16.6395197 47.8927227,17.9139214 C47.0393868,19.2042531 47.6721977,20.7144191 48.1547959,22.0557268 C48.6989472,23.4220631 49.3552927,24.7412987 50.1171488,26 C49.3014397,24.7694081 48.5956103,23.4698457 48.0077792,22.1162609 C47.7149728,21.4327777 47.4870595,20.723446 47.3270281,19.9975681 C47.298264,19.8127799 47.2631078,19.6311776 47.2407357,19.4432034 C47.2309664,19.2476018 47.2470852,19.0515696 47.2886759,18.8601646 C47.3780136,18.4948654 47.5065971,18.1402319 47.6721977,17.8024112 C48.3114006,16.4547315 49.1647365,15.2536079 49.8199195,13.9377882 C50.1601844,13.3066235 50.4200086,12.6355511 50.593355,11.9401635 C50.6728171,11.5967722 50.6986892,11.2432199 50.6700593,10.8919682 C50.6302927,10.5511402 50.5121722,10.2240555 50.3248898,9.93616692 C49.8791459,9.38567278 49.2726404,8.98705606 48.5894539,8.79557742 C48.4186023,8.73645201 48.2447044,8.68646673 48.0685035,8.64583522 C47.8943407,8.59457471 47.7171538,8.5541409 47.5379651,8.52476706 C47.3557922,8.49609303 47.1800114,8.45467497 46.9978386,8.43237294 L46.4385361,8.38139688 C44.9863598,8.19757265 43.5131069,8.26874015 42.0855643,8.59167315 C39.1909558,9.24880258 36.6568282,10.9819264 35,13.4375855 L35,13.4375855 Z" id="Path" fill="#93AADB"></path>
                    <path d="M17,70.1259952 C19.6800217,66.4265945 26.5831077,67.9964271 26.5831077,67.9964271 C26.5831077,67.9964271 23.5392528,60.2759388 27.84353,57.1813098 C32.1478073,54.0866807 35.0292366,57.7828645 36.9783433,60.1536978 C38.9274499,62.524531 41,72.2169607 41,72.2169607 L30.1857066,76 C30.1857066,76 24.7022198,69.7657057 21.8727666,69.7657057 C19.0433135,69.7657057 18.016784,71.0524537 18.016784,71.0524537 L17,70.1259952 Z M27.7623173,66.3075703 L36.4910666,62.6081697 C36.4910666,62.6081697 34.4607472,58.7061062 32.1283162,58.1463708 C29.7958852,57.5866354 26.5246345,57.9147562 27.7493232,66.3075703 L27.7623173,66.3075703 Z" id="Shape" fill="#14CAF1"></path>
                    <path d="M48,45.2136547 C48,45.2136547 40.490332,50.5240572 36.9477278,52.2038463 C33.4051235,53.8836353 33.3561474,54.0758814 33.2679904,54.6872868 C33.1798335,55.2986922 33.2255445,59.1593705 32.1448053,59.8873842 C31.0640661,60.6153978 28.9613591,57.6214023 29.00054,56.4206526 C29.0397209,55.2199028 31.9391057,52.4213049 32.980664,51.4159527 C34.0222223,50.4106006 44.0557918,41 44.0557918,41 L48,45.2136547 Z" id="Path" fill="#FFD7B9"></path>
                    <path d="M18,75.0976799 C17.9709105,75.6038078 17.5318288,76 17,76 C16.4681712,76 16.0290895,75.6038078 16,75.0976799 C16,74.571831 16.9985007,73 16.9985007,73 C16.9985007,73 18,74.5603995 18,75.0976799 Z" id="Path" fill="#14CAF1"></path>
                    <path d="M19,79.0625 C19,79.580267 18.7761424,80 18.5,80 C18.2238576,80 18,79.580267 18,79.0625 C18,78.5451389 18.5,77 18.5,77 C18.5,77 19,78.5451389 19,79.0625 Z" id="Path" fill="#14CAF1"></path>
                </g>
            </g>
        </g>
    </g>
</svg>